<svg width="580" height="400" xmlns="http://www.w3.org/2000/svg">
 <!-- Created with Method Draw - http://github.com/duopixel/Method-Draw/ -->

 <g>
  <title>background</title>
  <rect height="402" width="582" y="-1" x="-1" fill="#fff" id="canvas_background"/>
  <g y="0" x="0" height="100%" width="100%" display="none" overflow="visible" id="canvasGrid">
   <rect height="100%" width="100%" y="0" x="0" stroke-width="0" fill="url(#gridpattern)"/>
  </g>
 </g>
 <g>
  <title>Layer 1</title>
  <g id="svg_8">
   <path d="m466.172119,224.223663c-14.153503,0 -25.733643,11.24527 -25.733643,24.989487c0,27.488388 -23.160187,49.978867 -51.467163,49.978867l-12.866791,0l0,-24.989441l18.65686,0c14.796844,0 26.376923,-11.869995 26.376923,-25.614166l0,-13.744217c0,-36.859436 -30.880341,-66.846756 -68.837402,-66.846756l-50.18045,0c-5.146759,0 -9.650116,-4.373154 -9.650116,-9.371033l0,-115.576187c0,-3.748413 -2.573334,-6.24736 -6.43338,-6.24736l-77.200821,0c-3.860031,0 -6.43338,2.498947 -6.43338,6.24736s2.573349,6.247368 6.43338,6.247368l70.76738,0l0,24.989441l-32.166977,0c0,-3.748421 -2.573334,-6.247368 -6.433395,-6.247368s-6.433395,2.498947 -6.433395,6.247368l0,12.494713c0,3.748428 2.573364,6.247375 6.433395,6.247375s6.433395,-2.498947 6.433395,-6.247375l32.166977,0l0,18.742088l-32.166977,0c0,-3.748421 -2.573334,-6.24736 -6.433395,-6.24736s-6.433395,2.49894 -6.433395,6.24736l0,12.49472c0,3.748421 2.573364,6.247368 6.433395,6.247368s6.433395,-2.498947 6.433395,-6.247368l32.166977,0l0,18.742088l-32.166977,0c0,-3.748428 -2.573334,-6.24736 -6.433395,-6.24736s-6.433395,2.498932 -6.433395,6.24736l0,12.494705c0,3.748444 2.573364,6.247375 6.433395,6.247375s6.433395,-2.498932 6.433395,-6.247375l32.166977,0l0,9.371063c0,11.86998 10.293488,21.865768 22.516937,21.865768l8.363403,0c-19.300201,13.744171 -30.880341,38.108871 -30.880341,68.720978c0,3.748383 2.573395,6.24733 6.433441,6.24733s6.43338,-2.498947 6.43338,-6.24733c0,-41.232574 23.160248,-68.720978 57.900635,-68.720978l1.929932,0c30.880371,0 55.970612,24.3647 55.970612,54.35202l0,13.744217c0,7.496826 -6.433441,13.119415 -13.510132,13.119415l-217.448883,0c-7.076736,0 -13.510132,-6.247345 -13.510132,-13.119415l0,-24.364746l6.433395,0c14.153473,0 25.733597,11.24527 25.733597,24.989487c0,3.748383 2.573349,6.24733 6.433395,6.24733s6.43338,-2.498947 6.43338,-6.24733c0,-20.616333 -17.370163,-37.484177 -38.600372,-37.484177l-6.433395,0l0,-162.431389l12.866806,0l0,68.720963c0,2.498955 1.286667,4.373169 3.860031,5.62262l12.866791,6.247368c0.643341,0.624741 1.286682,0.624741 2.573364,0.624741s1.930023,0 2.573349,-0.624741l12.866806,-6.247368c1.930008,-1.249451 3.860031,-3.123665 3.860031,-5.62262l0,-56.22625c0,-3.748413 -2.573349,-6.247356 -6.433411,-6.247356s-6.43338,2.498943 -6.43338,6.247356l0,52.477837l-6.433395,3.12368l-6.433411,-3.12368l0,-71.219917c0,-3.748413 -2.573349,-6.24736 -6.433395,-6.24736l-25.733597,0c-3.860031,0 -6.433365,2.498947 -6.433365,6.24736l0,205.538193c0,14.368927 12.22345,25.614166 26.376907,25.614166l25.090256,0l0,24.989441l-8.363419,0c-16.726837,0 -32.166992,-6.247345 -43.747101,-17.492584c-9.650116,-9.371063 -26.37693,-9.371063 -36.67038,0c-5.146713,4.373138 -7.720078,10.620483 -7.720078,17.492584c0,6.872101 2.573364,13.119446 7.720078,17.492584c21.230209,21.241058 49.537186,32.486328 80.41748,32.486328l194.931976,0c56.613892,0 102.934357,-44.980988 102.934357,-99.957779c0,-13.744217 -11.580078,-24.989487 -25.733551,-24.989487zm-141.53476,49.978912l0,24.989441l-70.76741,0l0,-24.989441l70.76741,0zm64.333954,62.473572l-194.931976,0c-27.020279,0 -52.110519,-9.995728 -71.410721,-28.737823c-2.573357,-2.498932 -3.860031,-5.622589 -3.860031,-8.746307s1.286674,-6.247345 3.860031,-8.746307c5.146721,-4.997925 13.510147,-4.997925 18.013504,0c14.153503,13.744232 32.810349,21.241028 52.753876,21.241028l9.00676,0l0,6.247375c0,3.748413 2.573349,6.247345 6.43338,6.247345s6.433411,-2.498932 6.433411,-6.247345l0,-43.731537l25.733597,0l0,24.989441l-6.433395,0c-3.860046,0 -6.433395,2.498962 -6.433395,6.247375s2.573349,6.247345 6.433395,6.247345l90.067612,0l0,6.247375c0,3.748413 2.573334,6.247345 6.43335,6.247345s6.433411,-2.498932 6.433411,-6.247345l0,-43.731537l25.733582,0l0,24.989441l-6.43335,0c-3.860077,0 -6.43338,2.498962 -6.43338,6.247375s2.573303,6.247345 6.43338,6.247345l32.166962,0c35.383698,0 64.333984,-28.113129 64.333984,-62.473587c0,-6.872101 5.79007,-12.494751 12.866821,-12.494751s12.866791,5.62265 12.866791,12.494751c0,48.10466 -40.530396,87.462997 -90.067596,87.462997zm-38.600342,-131.194534c-3.860077,0 -6.433472,-2.498947 -6.433472,-6.24736s2.573395,-6.24736 6.433472,-6.24736c22.516815,0 45.033752,14.993683 45.033752,43.731506c0,3.748398 -2.573364,6.247391 -6.433411,6.247391s-6.43338,-2.498993 -6.43338,-6.247391c0,-21.241013 -16.726837,-31.236786 -32.166962,-31.236786zm-167.268417,-62.473618c3.860046,0 6.433395,2.498932 6.433395,6.247345l0,31.236832c0,3.748398 -2.573349,6.24736 -6.433395,6.24736s-6.43338,-2.498962 -6.43338,-6.24736l0,-31.236832c0,-3.748413 2.573334,-6.247345 6.43338,-6.247345z" id="svg_5"/>
   <text y="72.3901" x="24.2801" transform="matrix(6.4334 0 0 6.24736 -50.3019 21.8711)" fill="#000000" font-weight="bold" font-size="5px" font-family="'Helvetica Neue', Helvetica, Arial-Unicode, Arial, Sans-serif" id="svg_6">Created by Denis Shumaylov</text>
   <text y="77.3901" x="24.2801" transform="matrix(6.4334 0 0 6.24736 -50.3019 21.8711)" fill="#000000" font-weight="bold" font-size="5px" font-family="'Helvetica Neue', Helvetica, Arial-Unicode, Arial, Sans-serif" id="svg_7">from the Noun Project</text>
  </g>
 </g>
</svg>